<svg id="weave_logo" data-name="weave logo" xmlns="http://www.w3.org/2000/svg" width="512" height="512" viewBox="0 0 512 512">
  <defs>
    <style>
      .cls-1 {
        fill: #f59b2d;
      }

      .cls-1, .cls-2, .cls-3, .cls-4 {
        fill-rule: evenodd;
      }

      .cls-2 {
        fill: #1e8cd2;
      }

      .cls-3 {
        fill: #69be46;
      }

      .cls-4 {
        fill: #d2051e;
      }
    </style>
  </defs>
  <path id="orange" class="cls-1" d="M244.415,62.785l23.17-23.17,204.8,204.8-23.17,23.17Zm204.8,409.6-409.6-409.6,23.17-23.17,409.6,409.6ZM266.744,448.373l-23.171,23.171L39.615,267.585l23.17-23.17Z"/>
  <path id="blue" class="cls-2" d="M62.785,472.385l-23.17-23.17,409.6-409.6,23.17,23.17Zm-23.17-227.97,204.8-204.8,23.17,23.17-204.8,204.8Zm431.929,24.012L267.585,472.385l-23.17-23.17L448.373,245.256Z"/>
  <path id="green" class="cls-3" d="M460.8,307.2A51.2,51.2,0,1,1,512,256,51.2,51.2,0,0,1,460.8,307.2ZM256,512a51.2,51.2,0,1,1,51.2-51.2A51.2,51.2,0,0,1,256,512Zm0-409.6a51.2,51.2,0,1,1,51.2-51.2A51.2,51.2,0,0,1,256,102.4ZM51.2,307.2A51.2,51.2,0,1,1,102.4,256,51.2,51.2,0,0,1,51.2,307.2Z"/>
  <path id="red" class="cls-4" d="M460.8,102.4A51.2,51.2,0,1,1,512,51.2,51.2,51.2,0,0,1,460.8,102.4ZM256,307.2A51.2,51.2,0,1,1,307.2,256,51.2,51.2,0,0,1,256,307.2ZM51.2,512a51.2,51.2,0,1,1,51.2-51.2A51.2,51.2,0,0,1,51.2,512Zm0-409.6a51.2,51.2,0,1,1,51.2-51.2A51.2,51.2,0,0,1,51.2,102.4ZM460.8,409.6a51.2,51.2,0,1,1-51.2,51.2A51.2,51.2,0,0,1,460.8,409.6Z"/>
</svg>
